<svg xmlns="http://www.w3.org/2000/svg" xmlns:xlink="http://www.w3.org/1999/xlink" width="167.408" height="43" viewBox="0 0 167.408 43">
  <defs>
    <filter id="Path_2" x="0" y="12" width="167.408" height="19.203" filterUnits="userSpaceOnUse">
      <feOffset input="SourceAlpha"/>
      <feGaussianBlur stdDeviation="1" result="blur"/>
      <feFlood flood-opacity="0.161"/>
      <feComposite operator="in" in2="blur"/>
      <feComposite in="SourceGraphic"/>
    </filter>
  </defs>
  <g id="logo-white" transform="translate(1686.203 -273.101)">
    <rect id="Rectangle_1801" data-name="Rectangle 1801" width="166" height="43" transform="translate(-1685.203 273.101)" fill="rgba(255,255,255,0)"/>
    <g transform="matrix(1, 0, 0, 1, -1686.2, 273.1)" filter="url(#Path_2)">
      <path id="Path_2-2" data-name="Path_2" d="M-1677.77,288.886l-3.255,8.134-3.255-8.134h-1.923l5.177,12.418,5.177-12.418Zm6.716,0v11.666h1.785V288.886Zm14.695,1.136a6.8,6.8,0,0,0-4.34-1.136h-2.448v11.666h2.414a6.7,6.7,0,0,0,4.268-1.119,5.567,5.567,0,0,0,2.345-4.7,5.774,5.774,0,0,0-2.24-4.71Zm-1.136,8.031a5.054,5.054,0,0,1-3.1.824h-.769v-8.309h.769a5.226,5.226,0,0,1,3.114.8,4.16,4.16,0,0,1,1.572,3.358,4.112,4.112,0,0,1-1.581,3.327Zm8.937-9.167v11.666h1.785V288.886Zm6.685,0v1.679h2.675v9.988h1.785v-9.988h2.675v-1.679Zm24.559.632a4.562,4.562,0,0,0-2.554-.628h-2.572v11.666h1.785v-4.741h.8a4.225,4.225,0,0,0,2.853-.91,3.267,3.267,0,0,0,1.136-2.554,3.374,3.374,0,0,0-1.444-2.833Zm-2.537,4.652h-.8v-3.639h.786c2.029,0,2.29,1.154,2.29,1.8,0,1.087-.735,1.839-2.275,1.839Zm13.085-5.964-5.806,12.35h1.861l3.873-8.467,1.1,2.527.632,1.442h0l1.957,4.494h1.912Zm14.276,7.365a3.2,3.2,0,0,0,2.589-3.255,3.258,3.258,0,0,0-1.384-2.747,5.218,5.218,0,0,0-3.08-.683h-2.081v11.666h1.785V295.78h.316l3.341,4.776h2.153Zm-2.17-1.332v-3.708h.611c.875,0,2.431.158,2.431,1.8,0,1.854-1.995,1.906-2.486,1.906Zm15.357-6.032-5.806,12.35h1.864l3.873-8.467,1.641,3.766.089.2h0l1.957,4.494h1.909Zm18.787.68v8.082l-8.467-8.868v12.456h1.785V292.4l8.467,8.868V288.886Zm9.658,0v7.557a5.242,5.242,0,0,1-.192,1.871,1.162,1.162,0,0,1-1.171.786,1.8,1.8,0,0,1-1.226-.419l-.876,1.5a3.71,3.71,0,0,0,2.063.594,2.911,2.911,0,0,0,2.747-1.679,5.884,5.884,0,0,0,.436-2.657v-7.557Zm13.03.632a4.562,4.562,0,0,0-2.554-.628h-2.572v11.666h1.785v-4.741h.8a4.225,4.225,0,0,0,2.853-.91,3.267,3.267,0,0,0,1.136-2.554,3.366,3.366,0,0,0-1.45-2.834Zm-2.534,4.652h-.807v-3.639h.786c2.029,0,2.29,1.154,2.29,1.8,0,1.086-.727,1.838-2.267,1.838Zm15.567-3.605v-1.679h-6.438v11.666h6.438v-1.675h-4.652V295.2h4.515v-1.682h-4.515v-2.956Z" transform="translate(1689.2 -273.1)" fill="#fff"/>
    </g>
  </g>
</svg>
